<svg xmlns="http://www.w3.org/2000/svg" viewBox="0 0 128 224" fill="none">
  <path d="M43 202C56 164 65 124 66 82C66 55 60 31 49 12" stroke="#9b1f19" stroke-width="8" stroke-linecap="round"/>
  <path d="M62 57C80 34 104 29 119 42C107 67 82 74 62 57Z" fill="#e9a5a0" stroke="#9b1f19" stroke-width="3.8" stroke-linejoin="round"/>
  <path d="M66 83C86 63 110 62 123 78C107 101 82 103 66 83Z" fill="#e9a5a0" stroke="#9b1f19" stroke-width="3.8" stroke-linejoin="round"/>
  <path d="M63 111C85 94 108 98 118 115C99 134 75 132 63 111Z" fill="#e9a5a0" stroke="#9b1f19" stroke-width="3.8" stroke-linejoin="round"/>
  <path d="M56 139C78 126 99 134 105 153C84 167 62 160 56 139Z" fill="#e9a5a0" stroke="#9b1f19" stroke-width="3.8" stroke-linejoin="round"/>
  <path d="M44 170C65 160 84 169 88 187C67 198 49 189 44 170Z" fill="#e9a5a0" stroke="#9b1f19" stroke-width="3.8" stroke-linejoin="round"/>
  <path d="M50 68C28 52 12 55 5 71C19 91 43 88 50 68Z" fill="#e9a5a0" stroke="#9b1f19" stroke-width="3.8" stroke-linejoin="round"/>
  <path d="M54 96C31 82 13 88 8 105C25 123 47 117 54 96Z" fill="#e9a5a0" stroke="#9b1f19" stroke-width="3.8" stroke-linejoin="round"/>
  <path d="M51 126C28 113 11 121 8 139C26 155 48 148 51 126Z" fill="#e9a5a0" stroke="#9b1f19" stroke-width="3.8" stroke-linejoin="round"/>
  <path d="M43 158C22 148 7 157 7 174C24 188 43 180 43 158Z" fill="#e9a5a0" stroke="#9b1f19" stroke-width="3.8" stroke-linejoin="round"/>
  <path d="M50 69L23 71M55 96L25 103M51 127L24 136M43 158L23 169M62 57L101 44M67 83L107 79M63 111L100 116M56 139L91 151M44 170L75 184" stroke="#9b1f19" stroke-width="3.4" stroke-linecap="round"/>
  <path d="M86 40C91 35 96 33 103 32M92 68C100 66 107 67 113 71M86 99C94 99 101 101 106 106M77 134C85 136 91 140 95 146M31 57C24 54 18 54 12 57M31 88C22 88 16 92 12 97M29 119C21 120 15 125 12 131M24 151C17 153 12 158 9 165" stroke="#fff8ef" stroke-width="3.2" stroke-linecap="round" opacity=".52"/>
</svg>
